<mxfile host="app.diagrams.net" modified="2020-08-30T16:59:06.555Z" agent="5.0 (X11; Linux x86_64) AppleWebKit/537.36 (KHTML, like Gecko) Chrome/84.0.4147.125 Safari/537.36" etag="AZjgASCJkWjFVCzrfIzn" version="13.6.5" type="github">
  <diagram id="prtHgNgQTEPvFCAcTncT" name="Page-1">
    <mxGraphModel dx="798" dy="413" grid="1" gridSize="10" guides="1" tooltips="1" connect="1" arrows="1" fold="1" page="1" pageScale="1" pageWidth="827" pageHeight="1169" math="0" shadow="0">
      <root>
        <mxCell id="0" />
        <mxCell id="1" parent="0" />
        <mxCell id="dNxyNK7c78bLwvsdeMH5-19" value="TBD Pipeline" style="swimlane;html=1;childLayout=stackLayout;resizeParent=1;resizeParentMax=0;horizontal=0;startSize=20;horizontalStack=0;" parent="1" vertex="1">
          <mxGeometry x="120" y="120" width="1050" height="350" as="geometry" />
        </mxCell>
        <mxCell id="hf0FSqhI1aQTpMX49URd-41" style="edgeStyle=orthogonalEdgeStyle;rounded=0;orthogonalLoop=1;jettySize=auto;html=1;exitX=1;exitY=0;exitDx=0;exitDy=0;entryX=1;entryY=1;entryDx=0;entryDy=0;fontSize=11;" parent="dNxyNK7c78bLwvsdeMH5-19" source="dNxyNK7c78bLwvsdeMH5-22" target="dNxyNK7c78bLwvsdeMH5-21" edge="1">
          <mxGeometry relative="1" as="geometry" />
        </mxCell>
        <mxCell id="dNxyNK7c78bLwvsdeMH5-21" value="Master Branch" style="swimlane;html=1;startSize=20;horizontal=0;" parent="dNxyNK7c78bLwvsdeMH5-19" vertex="1">
          <mxGeometry x="20" width="1030" height="210" as="geometry" />
        </mxCell>
        <mxCell id="SqdYLDPxRIfFXTwO8DZ_-16" style="edgeStyle=orthogonalEdgeStyle;rounded=0;orthogonalLoop=1;jettySize=auto;html=1;exitX=1;exitY=0.5;exitDx=0;exitDy=0;entryX=0;entryY=0.5;entryDx=0;entryDy=0;fontSize=11;" parent="dNxyNK7c78bLwvsdeMH5-21" source="hf0FSqhI1aQTpMX49URd-14" target="SqdYLDPxRIfFXTwO8DZ_-7" edge="1">
          <mxGeometry relative="1" as="geometry">
            <Array as="points">
              <mxPoint x="610" y="65" />
              <mxPoint x="610" y="96" />
            </Array>
          </mxGeometry>
        </mxCell>
        <mxCell id="SqdYLDPxRIfFXTwO8DZ_-20" value="&amp;lt;repo&amp;gt;: 4-master-abcd" style="text;html=1;strokeColor=none;fillColor=none;align=center;verticalAlign=middle;whiteSpace=wrap;rounded=0;fontSize=11;" parent="dNxyNK7c78bLwvsdeMH5-21" vertex="1">
          <mxGeometry x="149" y="30" width="130" height="20" as="geometry" />
        </mxCell>
        <mxCell id="SqdYLDPxRIfFXTwO8DZ_-19" value="Commit: abcd" style="text;html=1;strokeColor=none;fillColor=none;align=center;verticalAlign=middle;whiteSpace=wrap;rounded=0;fontSize=11;" parent="dNxyNK7c78bLwvsdeMH5-21" vertex="1">
          <mxGeometry x="15" y="30" width="90" height="20" as="geometry" />
        </mxCell>
        <mxCell id="SqdYLDPxRIfFXTwO8DZ_-27" value="&amp;lt;repo&amp;gt;:v1.0.3" style="text;html=1;strokeColor=none;fillColor=none;align=center;verticalAlign=middle;whiteSpace=wrap;rounded=0;fontSize=11;" parent="dNxyNK7c78bLwvsdeMH5-21" vertex="1">
          <mxGeometry x="700" y="30" width="130" height="20" as="geometry" />
        </mxCell>
        <mxCell id="hf0FSqhI1aQTpMX49URd-14" value="Deploy Test01" style="ellipse;whiteSpace=wrap;html=1;fontSize=11;fillColor=#dae8fc;strokeColor=#6c8ebf;" parent="dNxyNK7c78bLwvsdeMH5-21" vertex="1">
          <mxGeometry x="543" y="45" width="40" height="40" as="geometry" />
        </mxCell>
        <mxCell id="SqdYLDPxRIfFXTwO8DZ_-12" style="edgeStyle=orthogonalEdgeStyle;rounded=0;orthogonalLoop=1;jettySize=auto;html=1;exitX=1;exitY=0.5;exitDx=0;exitDy=0;entryX=0;entryY=0.5;entryDx=0;entryDy=0;fontSize=11;" parent="dNxyNK7c78bLwvsdeMH5-21" source="SqdYLDPxRIfFXTwO8DZ_-8" target="SqdYLDPxRIfFXTwO8DZ_-9" edge="1">
          <mxGeometry relative="1" as="geometry" />
        </mxCell>
        <mxCell id="SqdYLDPxRIfFXTwO8DZ_-21" value="" style="shape=curlyBracket;whiteSpace=wrap;html=1;rounded=1;fillColor=#66B2FF;fontSize=11;rotation=90;" parent="dNxyNK7c78bLwvsdeMH5-21" vertex="1">
          <mxGeometry x="204" width="20" height="120" as="geometry" />
        </mxCell>
        <mxCell id="SqdYLDPxRIfFXTwO8DZ_-25" value="v1.0.3" style="text;html=1;strokeColor=none;fillColor=none;align=center;verticalAlign=middle;whiteSpace=wrap;rounded=0;fontSize=11;" parent="dNxyNK7c78bLwvsdeMH5-21" vertex="1">
          <mxGeometry x="605" y="55" width="90" height="20" as="geometry" />
        </mxCell>
        <mxCell id="SqdYLDPxRIfFXTwO8DZ_-26" value="" style="shape=curlyBracket;whiteSpace=wrap;html=1;rounded=1;fillColor=#66B2FF;fontSize=11;rotation=90;" parent="dNxyNK7c78bLwvsdeMH5-21" vertex="1">
          <mxGeometry x="750" y="5" width="20" height="120" as="geometry" />
        </mxCell>
        <mxCell id="hf0FSqhI1aQTpMX49URd-24" value="Deploy Prod" style="ellipse;whiteSpace=wrap;html=1;fontSize=11;fillColor=#d5e8d4;strokeColor=#82b366;" parent="dNxyNK7c78bLwvsdeMH5-21" vertex="1">
          <mxGeometry x="980" y="76" width="40" height="40" as="geometry" />
        </mxCell>
        <mxCell id="SqdYLDPxRIfFXTwO8DZ_-13" style="edgeStyle=orthogonalEdgeStyle;rounded=0;orthogonalLoop=1;jettySize=auto;html=1;exitX=1;exitY=0.5;exitDx=0;exitDy=0;entryX=0;entryY=0.5;entryDx=0;entryDy=0;fontSize=11;" parent="dNxyNK7c78bLwvsdeMH5-21" source="SqdYLDPxRIfFXTwO8DZ_-9" target="SqdYLDPxRIfFXTwO8DZ_-10" edge="1">
          <mxGeometry relative="1" as="geometry" />
        </mxCell>
        <mxCell id="SqdYLDPxRIfFXTwO8DZ_-9" value="Push" style="ellipse;whiteSpace=wrap;html=1;" parent="dNxyNK7c78bLwvsdeMH5-21" vertex="1">
          <mxGeometry x="770" y="76" width="40" height="40" as="geometry" />
        </mxCell>
        <mxCell id="SqdYLDPxRIfFXTwO8DZ_-14" style="edgeStyle=orthogonalEdgeStyle;rounded=0;orthogonalLoop=1;jettySize=auto;html=1;exitX=1;exitY=0.5;exitDx=0;exitDy=0;entryX=0;entryY=0.5;entryDx=0;entryDy=0;fontSize=11;" parent="dNxyNK7c78bLwvsdeMH5-21" source="SqdYLDPxRIfFXTwO8DZ_-10" target="hf0FSqhI1aQTpMX49URd-12" edge="1">
          <mxGeometry relative="1" as="geometry" />
        </mxCell>
        <mxCell id="SqdYLDPxRIfFXTwO8DZ_-10" value="Helm" style="ellipse;whiteSpace=wrap;html=1;" parent="dNxyNK7c78bLwvsdeMH5-21" vertex="1">
          <mxGeometry x="840" y="76" width="40" height="40" as="geometry" />
        </mxCell>
        <mxCell id="SqdYLDPxRIfFXTwO8DZ_-15" style="edgeStyle=orthogonalEdgeStyle;rounded=0;orthogonalLoop=1;jettySize=auto;html=1;exitX=1;exitY=0.5;exitDx=0;exitDy=0;entryX=0;entryY=0.5;entryDx=0;entryDy=0;fontSize=11;" parent="dNxyNK7c78bLwvsdeMH5-21" source="hf0FSqhI1aQTpMX49URd-12" target="hf0FSqhI1aQTpMX49URd-24" edge="1">
          <mxGeometry relative="1" as="geometry" />
        </mxCell>
        <mxCell id="hf0FSqhI1aQTpMX49URd-12" value="Deploy Staging" style="ellipse;whiteSpace=wrap;html=1;fontSize=11;fillColor=#fff2cc;strokeColor=#d6b656;" parent="dNxyNK7c78bLwvsdeMH5-21" vertex="1">
          <mxGeometry x="910" y="76" width="40" height="40" as="geometry" />
        </mxCell>
        <mxCell id="SqdYLDPxRIfFXTwO8DZ_-11" style="edgeStyle=orthogonalEdgeStyle;rounded=0;orthogonalLoop=1;jettySize=auto;html=1;exitX=1;exitY=0.5;exitDx=0;exitDy=0;entryX=0;entryY=0.5;entryDx=0;entryDy=0;fontSize=11;" parent="dNxyNK7c78bLwvsdeMH5-21" source="SqdYLDPxRIfFXTwO8DZ_-7" target="SqdYLDPxRIfFXTwO8DZ_-8" edge="1">
          <mxGeometry relative="1" as="geometry" />
        </mxCell>
        <mxCell id="SqdYLDPxRIfFXTwO8DZ_-7" value="GIT&lt;br&gt;Tag" style="ellipse;whiteSpace=wrap;html=1;fillColor=#f8cecc;strokeColor=#b85450;" parent="dNxyNK7c78bLwvsdeMH5-21" vertex="1">
          <mxGeometry x="630" y="76" width="40" height="40" as="geometry" />
        </mxCell>
        <mxCell id="SqdYLDPxRIfFXTwO8DZ_-8" value="Re-tag&lt;br style=&quot;font-size: 11px;&quot;&gt;image" style="ellipse;whiteSpace=wrap;html=1;fontSize=11;" parent="dNxyNK7c78bLwvsdeMH5-21" vertex="1">
          <mxGeometry x="700" y="76" width="40" height="40" as="geometry" />
        </mxCell>
        <mxCell id="SqdYLDPxRIfFXTwO8DZ_-18" style="edgeStyle=orthogonalEdgeStyle;rounded=0;orthogonalLoop=1;jettySize=auto;html=1;exitX=1;exitY=0.5;exitDx=0;exitDy=0;fontSize=11;" parent="dNxyNK7c78bLwvsdeMH5-21" source="hf0FSqhI1aQTpMX49URd-18" target="SqdYLDPxRIfFXTwO8DZ_-7" edge="1">
          <mxGeometry relative="1" as="geometry">
            <Array as="points">
              <mxPoint x="610" y="166" />
              <mxPoint x="610" y="96" />
            </Array>
          </mxGeometry>
        </mxCell>
        <mxCell id="hf0FSqhI1aQTpMX49URd-18" value="Deploy Test03" style="ellipse;whiteSpace=wrap;html=1;fontSize=11;fillColor=#dae8fc;strokeColor=#6c8ebf;" parent="dNxyNK7c78bLwvsdeMH5-21" vertex="1">
          <mxGeometry x="543" y="146" width="40" height="40" as="geometry" />
        </mxCell>
        <mxCell id="SqdYLDPxRIfFXTwO8DZ_-17" style="edgeStyle=orthogonalEdgeStyle;rounded=0;orthogonalLoop=1;jettySize=auto;html=1;exitX=1;exitY=0.5;exitDx=0;exitDy=0;fontSize=11;" parent="dNxyNK7c78bLwvsdeMH5-21" source="hf0FSqhI1aQTpMX49URd-16" target="SqdYLDPxRIfFXTwO8DZ_-7" edge="1">
          <mxGeometry relative="1" as="geometry">
            <Array as="points">
              <mxPoint x="610" y="116" />
              <mxPoint x="610" y="96" />
            </Array>
          </mxGeometry>
        </mxCell>
        <mxCell id="hf0FSqhI1aQTpMX49URd-16" value="Deploy Test02" style="ellipse;whiteSpace=wrap;html=1;fontSize=11;fillColor=#dae8fc;strokeColor=#6c8ebf;" parent="dNxyNK7c78bLwvsdeMH5-21" vertex="1">
          <mxGeometry x="543" y="96" width="40" height="40" as="geometry" />
        </mxCell>
        <mxCell id="hf0FSqhI1aQTpMX49URd-6" value="Push" style="ellipse;whiteSpace=wrap;html=1;" parent="dNxyNK7c78bLwvsdeMH5-21" vertex="1">
          <mxGeometry x="234" y="76" width="40" height="40" as="geometry" />
        </mxCell>
        <mxCell id="dNxyNK7c78bLwvsdeMH5-23" value="Push" style="ellipse;whiteSpace=wrap;html=1;" parent="dNxyNK7c78bLwvsdeMH5-21" vertex="1">
          <mxGeometry x="40" y="76" width="40" height="40" as="geometry" />
        </mxCell>
        <mxCell id="hf0FSqhI1aQTpMX49URd-11" value="" style="edgeStyle=orthogonalEdgeStyle;rounded=0;orthogonalLoop=1;jettySize=auto;html=1;" parent="dNxyNK7c78bLwvsdeMH5-21" source="hf0FSqhI1aQTpMX49URd-8" target="hf0FSqhI1aQTpMX49URd-10" edge="1">
          <mxGeometry relative="1" as="geometry" />
        </mxCell>
        <mxCell id="hf0FSqhI1aQTpMX49URd-3" value="" style="edgeStyle=orthogonalEdgeStyle;rounded=0;orthogonalLoop=1;jettySize=auto;html=1;" parent="dNxyNK7c78bLwvsdeMH5-21" source="dNxyNK7c78bLwvsdeMH5-23" target="hf0FSqhI1aQTpMX49URd-2" edge="1">
          <mxGeometry relative="1" as="geometry" />
        </mxCell>
        <mxCell id="hf0FSqhI1aQTpMX49URd-5" value="" style="edgeStyle=orthogonalEdgeStyle;rounded=0;orthogonalLoop=1;jettySize=auto;html=1;" parent="dNxyNK7c78bLwvsdeMH5-21" source="hf0FSqhI1aQTpMX49URd-2" target="hf0FSqhI1aQTpMX49URd-4" edge="1">
          <mxGeometry relative="1" as="geometry" />
        </mxCell>
        <mxCell id="hf0FSqhI1aQTpMX49URd-2" value="Unit Test" style="ellipse;whiteSpace=wrap;html=1;" parent="dNxyNK7c78bLwvsdeMH5-21" vertex="1">
          <mxGeometry x="100" y="76" width="40" height="40" as="geometry" />
        </mxCell>
        <mxCell id="hf0FSqhI1aQTpMX49URd-7" value="" style="edgeStyle=orthogonalEdgeStyle;rounded=0;orthogonalLoop=1;jettySize=auto;html=1;" parent="dNxyNK7c78bLwvsdeMH5-21" source="hf0FSqhI1aQTpMX49URd-4" target="hf0FSqhI1aQTpMX49URd-6" edge="1">
          <mxGeometry relative="1" as="geometry" />
        </mxCell>
        <mxCell id="hf0FSqhI1aQTpMX49URd-9" value="" style="edgeStyle=orthogonalEdgeStyle;rounded=0;orthogonalLoop=1;jettySize=auto;html=1;" parent="dNxyNK7c78bLwvsdeMH5-21" source="hf0FSqhI1aQTpMX49URd-6" target="hf0FSqhI1aQTpMX49URd-8" edge="1">
          <mxGeometry relative="1" as="geometry" />
        </mxCell>
        <mxCell id="hf0FSqhI1aQTpMX49URd-4" value="Build" style="ellipse;whiteSpace=wrap;html=1;" parent="dNxyNK7c78bLwvsdeMH5-21" vertex="1">
          <mxGeometry x="164" y="76" width="40" height="40" as="geometry" />
        </mxCell>
        <mxCell id="hf0FSqhI1aQTpMX49URd-8" value="Sec Test" style="ellipse;whiteSpace=wrap;html=1;" parent="dNxyNK7c78bLwvsdeMH5-21" vertex="1">
          <mxGeometry x="300" y="76" width="40" height="40" as="geometry" />
        </mxCell>
        <mxCell id="hf0FSqhI1aQTpMX49URd-17" style="edgeStyle=orthogonalEdgeStyle;rounded=0;orthogonalLoop=1;jettySize=auto;html=1;exitX=1;exitY=0.5;exitDx=0;exitDy=0;entryX=0;entryY=0.5;entryDx=0;entryDy=0;" parent="dNxyNK7c78bLwvsdeMH5-21" source="hf0FSqhI1aQTpMX49URd-10" target="hf0FSqhI1aQTpMX49URd-16" edge="1">
          <mxGeometry relative="1" as="geometry">
            <Array as="points">
              <mxPoint x="500" y="96" />
              <mxPoint x="500" y="116" />
            </Array>
          </mxGeometry>
        </mxCell>
        <mxCell id="hf0FSqhI1aQTpMX49URd-19" style="edgeStyle=orthogonalEdgeStyle;rounded=0;orthogonalLoop=1;jettySize=auto;html=1;exitX=1;exitY=0.5;exitDx=0;exitDy=0;entryX=0;entryY=0.5;entryDx=0;entryDy=0;" parent="dNxyNK7c78bLwvsdeMH5-21" source="hf0FSqhI1aQTpMX49URd-10" target="hf0FSqhI1aQTpMX49URd-18" edge="1">
          <mxGeometry relative="1" as="geometry">
            <Array as="points">
              <mxPoint x="500" y="96" />
              <mxPoint x="500" y="166" />
            </Array>
          </mxGeometry>
        </mxCell>
        <mxCell id="SqdYLDPxRIfFXTwO8DZ_-5" style="edgeStyle=orthogonalEdgeStyle;rounded=0;orthogonalLoop=1;jettySize=auto;html=1;exitX=1;exitY=0.5;exitDx=0;exitDy=0;entryX=0;entryY=0.5;entryDx=0;entryDy=0;fontSize=11;" parent="dNxyNK7c78bLwvsdeMH5-21" source="hf0FSqhI1aQTpMX49URd-10" target="hf0FSqhI1aQTpMX49URd-14" edge="1">
          <mxGeometry relative="1" as="geometry">
            <Array as="points">
              <mxPoint x="500" y="96" />
              <mxPoint x="500" y="65" />
            </Array>
          </mxGeometry>
        </mxCell>
        <mxCell id="hf0FSqhI1aQTpMX49URd-10" value="Helm" style="ellipse;whiteSpace=wrap;html=1;" parent="dNxyNK7c78bLwvsdeMH5-21" vertex="1">
          <mxGeometry x="370" y="76" width="40" height="40" as="geometry" />
        </mxCell>
        <mxCell id="dNxyNK7c78bLwvsdeMH5-22" value="Feature Branch" style="swimlane;html=1;startSize=20;horizontal=0;" parent="dNxyNK7c78bLwvsdeMH5-19" vertex="1">
          <mxGeometry x="20" y="210" width="1030" height="140" as="geometry" />
        </mxCell>
        <mxCell id="hf0FSqhI1aQTpMX49URd-39" value="Deploy Feat." style="ellipse;whiteSpace=wrap;html=1;fillColor=#ffe6cc;strokeColor=#d79b00;" parent="dNxyNK7c78bLwvsdeMH5-22" vertex="1">
          <mxGeometry x="450" y="30" width="40" height="40" as="geometry" />
        </mxCell>
        <mxCell id="hf0FSqhI1aQTpMX49URd-37" value="Create Cluster" style="ellipse;whiteSpace=wrap;html=1;" parent="dNxyNK7c78bLwvsdeMH5-22" vertex="1">
          <mxGeometry x="380" y="30" width="40" height="40" as="geometry" />
        </mxCell>
        <mxCell id="hf0FSqhI1aQTpMX49URd-34" value="Unit Test" style="ellipse;whiteSpace=wrap;html=1;" parent="dNxyNK7c78bLwvsdeMH5-22" vertex="1">
          <mxGeometry x="40" y="30" width="40" height="40" as="geometry" />
        </mxCell>
        <mxCell id="hf0FSqhI1aQTpMX49URd-26" value="Push" style="ellipse;whiteSpace=wrap;html=1;" parent="dNxyNK7c78bLwvsdeMH5-22" vertex="1">
          <mxGeometry x="174" y="30" width="40" height="40" as="geometry" />
        </mxCell>
        <mxCell id="hf0FSqhI1aQTpMX49URd-27" value="" style="edgeStyle=orthogonalEdgeStyle;rounded=0;orthogonalLoop=1;jettySize=auto;html=1;" parent="dNxyNK7c78bLwvsdeMH5-22" source="hf0FSqhI1aQTpMX49URd-32" target="hf0FSqhI1aQTpMX49URd-33" edge="1">
          <mxGeometry relative="1" as="geometry" />
        </mxCell>
        <mxCell id="hf0FSqhI1aQTpMX49URd-28" value="" style="edgeStyle=orthogonalEdgeStyle;rounded=0;orthogonalLoop=1;jettySize=auto;html=1;" parent="dNxyNK7c78bLwvsdeMH5-22" source="hf0FSqhI1aQTpMX49URd-34" target="hf0FSqhI1aQTpMX49URd-31" edge="1">
          <mxGeometry relative="1" as="geometry">
            <mxPoint x="80" y="50" as="sourcePoint" />
          </mxGeometry>
        </mxCell>
        <mxCell id="hf0FSqhI1aQTpMX49URd-29" value="" style="edgeStyle=orthogonalEdgeStyle;rounded=0;orthogonalLoop=1;jettySize=auto;html=1;" parent="dNxyNK7c78bLwvsdeMH5-22" source="hf0FSqhI1aQTpMX49URd-31" target="hf0FSqhI1aQTpMX49URd-26" edge="1">
          <mxGeometry relative="1" as="geometry" />
        </mxCell>
        <mxCell id="hf0FSqhI1aQTpMX49URd-30" value="" style="edgeStyle=orthogonalEdgeStyle;rounded=0;orthogonalLoop=1;jettySize=auto;html=1;" parent="dNxyNK7c78bLwvsdeMH5-22" source="hf0FSqhI1aQTpMX49URd-26" target="hf0FSqhI1aQTpMX49URd-32" edge="1">
          <mxGeometry relative="1" as="geometry" />
        </mxCell>
        <mxCell id="hf0FSqhI1aQTpMX49URd-31" value="Build" style="ellipse;whiteSpace=wrap;html=1;" parent="dNxyNK7c78bLwvsdeMH5-22" vertex="1">
          <mxGeometry x="104" y="30" width="40" height="40" as="geometry" />
        </mxCell>
        <mxCell id="hf0FSqhI1aQTpMX49URd-32" value="Sec Test" style="ellipse;whiteSpace=wrap;html=1;" parent="dNxyNK7c78bLwvsdeMH5-22" vertex="1">
          <mxGeometry x="240" y="30" width="40" height="40" as="geometry" />
        </mxCell>
        <mxCell id="hf0FSqhI1aQTpMX49URd-33" value="Helm" style="ellipse;whiteSpace=wrap;html=1;" parent="dNxyNK7c78bLwvsdeMH5-22" vertex="1">
          <mxGeometry x="310" y="30" width="40" height="40" as="geometry" />
        </mxCell>
        <mxCell id="hf0FSqhI1aQTpMX49URd-38" value="" style="edgeStyle=orthogonalEdgeStyle;rounded=0;orthogonalLoop=1;jettySize=auto;html=1;fontSize=11;" parent="dNxyNK7c78bLwvsdeMH5-22" source="hf0FSqhI1aQTpMX49URd-33" target="hf0FSqhI1aQTpMX49URd-37" edge="1">
          <mxGeometry relative="1" as="geometry" />
        </mxCell>
        <mxCell id="hf0FSqhI1aQTpMX49URd-40" value="" style="edgeStyle=orthogonalEdgeStyle;rounded=0;orthogonalLoop=1;jettySize=auto;html=1;fontSize=11;" parent="dNxyNK7c78bLwvsdeMH5-22" source="hf0FSqhI1aQTpMX49URd-37" target="hf0FSqhI1aQTpMX49URd-39" edge="1">
          <mxGeometry relative="1" as="geometry" />
        </mxCell>
        <mxCell id="SqdYLDPxRIfFXTwO8DZ_-22" value="" style="shape=curlyBracket;whiteSpace=wrap;html=1;rounded=1;fillColor=#66B2FF;fontSize=11;rotation=-90;" parent="dNxyNK7c78bLwvsdeMH5-22" vertex="1">
          <mxGeometry x="149" y="20" width="20" height="120" as="geometry" />
        </mxCell>
        <mxCell id="SqdYLDPxRIfFXTwO8DZ_-23" value="&amp;lt;repo&amp;gt;: 5-feature-abcd" style="text;html=1;strokeColor=none;fillColor=none;align=center;verticalAlign=middle;whiteSpace=wrap;rounded=0;fontSize=11;" parent="dNxyNK7c78bLwvsdeMH5-22" vertex="1">
          <mxGeometry x="94" y="90" width="130" height="20" as="geometry" />
        </mxCell>
        <mxCell id="hf0FSqhI1aQTpMX49URd-35" style="edgeStyle=orthogonalEdgeStyle;rounded=0;orthogonalLoop=1;jettySize=auto;html=1;exitX=0.5;exitY=1;exitDx=0;exitDy=0;entryX=0.5;entryY=0;entryDx=0;entryDy=0;fontSize=11;" parent="dNxyNK7c78bLwvsdeMH5-19" source="dNxyNK7c78bLwvsdeMH5-23" target="hf0FSqhI1aQTpMX49URd-34" edge="1">
          <mxGeometry relative="1" as="geometry" />
        </mxCell>
        <mxCell id="hf0FSqhI1aQTpMX49URd-36" value="Create Branch" style="edgeLabel;html=1;align=center;verticalAlign=middle;resizable=0;points=[];fontSize=11;" parent="hf0FSqhI1aQTpMX49URd-35" vertex="1" connectable="0">
          <mxGeometry x="-0.1875" y="1" relative="1" as="geometry">
            <mxPoint as="offset" />
          </mxGeometry>
        </mxCell>
        <mxCell id="hf0FSqhI1aQTpMX49URd-43" style="edgeStyle=orthogonalEdgeStyle;rounded=0;orthogonalLoop=1;jettySize=auto;html=1;exitX=0.5;exitY=0;exitDx=0;exitDy=0;entryX=1;entryY=1;entryDx=0;entryDy=0;fontSize=11;" parent="dNxyNK7c78bLwvsdeMH5-19" source="hf0FSqhI1aQTpMX49URd-39" target="dNxyNK7c78bLwvsdeMH5-23" edge="1">
          <mxGeometry relative="1" as="geometry">
            <Array as="points">
              <mxPoint x="490" y="180" />
              <mxPoint x="94" y="180" />
            </Array>
          </mxGeometry>
        </mxCell>
        <mxCell id="hf0FSqhI1aQTpMX49URd-45" value="Delete Feat. Branch" style="edgeLabel;html=1;align=center;verticalAlign=middle;resizable=0;points=[];fontSize=11;" parent="hf0FSqhI1aQTpMX49URd-43" vertex="1" connectable="0">
          <mxGeometry x="-0.8505" y="1" relative="1" as="geometry">
            <mxPoint y="22" as="offset" />
          </mxGeometry>
        </mxCell>
        <mxCell id="hf0FSqhI1aQTpMX49URd-44" value="Merge" style="edgeLabel;html=1;align=center;verticalAlign=middle;resizable=0;points=[];fontSize=11;" parent="hf0FSqhI1aQTpMX49URd-43" vertex="1" connectable="0">
          <mxGeometry x="-0.8612" relative="1" as="geometry">
            <mxPoint x="-196" y="-24" as="offset" />
          </mxGeometry>
        </mxCell>
      </root>
    </mxGraphModel>
  </diagram>
</mxfile>
